<?xml version="1.0" encoding="UTF-8"?><svg xmlns="http://www.w3.org/2000/svg" width="147.11mm" height="39.18mm" viewBox="0 0 417 111.07"><g id="a"/><g id="b"><g id="c"><g><path d="M242.99,37.94c3.56-4.24,7.13-7.87,11.82-10.19,7.62-3.77,13.39-2.01,17.49,5.47,1.19,2.17,2.14,4.46,2.79,7.24,2.15-3.32,4.25-6.34,7.11-8.69,2.77-2.28,5.76-4,9.43-4.6,4.19-.69,6.77,1.27,8.85,4.49,2.61,4.05,3.63,8.63,4.38,13.27,2.53,15.52,2.01,31.06-.08,46.56-.67,4.99-2.14,9.93-5.71,13.78-3.61,3.89-8.85,2.75-10.64-2.23-1.3-3.6-2.02-7.35-1.94-11.17,.21-10.19,.56-20.39,.81-30.58,.05-2.24-.14-4.49-.92-6.61-.92-2.5-3.09-2.93-4.97-.99-1.35,1.39-2.09,3.16-2.72,4.96-2.32,6.56-2.73,13.45-3.24,20.29-.63,8.35-1.16,16.71-4.07,24.67-.48,1.31-1.09,2.61-1.88,3.76-2.78,4.06-7.69,3.75-10.04-.57-2.55-4.71-3.27-9.87-3.41-15.08-.22-8.13-.06-16.27-.23-24.4-.08-3.54-.23-7.11-1.39-10.53-.41-1.22-.98-2.42-2.37-2.6-1.25-.16-2.17,.67-2.84,1.68-3.46,5.24-5.12,11.04-5.27,17.27-.2,8.47,1.77,16.81,1.53,25.28-.15,5.2-3.26,9.11-8.03,9.81-2.87,.42-5.23-.57-6.86-2.98-2.99-4.4-4.38-9.41-5.07-14.58-1.55-11.7-1.7-23.47-1.25-35.23,.28-7.27,.76-14.56,3.5-21.46,2.01-5.06,5.47-7.21,9.89-6.01,3.48,.95,5.26,3.2,5.36,6.81,.02,.91,0,1.81,0,3.15Z" style="fill:#1d1e1b;"/><path d="M387.84,106.8c-10.35-.18-17.44-5.72-22.66-13.94-8.79-13.84-8.6-28.57-3.65-43.59,2.45-7.44,6.36-13.98,12.56-18.98,7.29-5.88,15.45-6.82,24.05-3.85,12.2,4.22,17.81,16.99,12.81,29.27-5.18,12.74-15.14,19.41-28.51,21.3-1.94,.27-1.95,.87-1.37,2.32,1.8,4.53,7.93,6.73,12.86,4.51,3.54-1.6,6.78-3.73,10-5.9,2.8-1.88,5.85-2.81,9.13-1.33,3.55,1.6,4.58,4.34,3.6,8.72-.88,3.95-3.17,7.11-5.84,9.92-5.06,5.31-11.1,9.14-18.31,10.91-1.51,.37-3.1,.43-4.66,.63Zm7.11-57.87c.02-4.66-3.33-6.65-7.45-4.47-5.31,2.79-6.66,7.84-7.64,13.12-.24,1.29,.39,1.32,1.41,1.11,3.5-.72,6.94-1.68,9.93-3.66,2.1-1.4,3.77-3.28,3.75-6.09Z" style="fill:#1d1e1b;"/><path d="M17.09,73.41c0-2.33-.11-4.66,.04-6.97,.1-1.62-.49-1.91-1.97-1.85-4.21,.17-8.29-.35-11.88-2.83-4.15-2.87-4.36-7.53-.59-10.88,3.71-3.29,8.25-4.53,12.96-5.04,2.13-.23,2.25-1.08,2.29-2.77,.18-8.14,.91-16.21,3.79-23.92,2.76-7.4,6.78-14.03,14.4-17.1,14.17-5.72,26.04,.87,28.92,16.17,.82,4.35,1.01,8.71-.06,13.06-.95,3.87-4.09,6.55-8.11,6.86-4.84,.37-7.41-.87-8.76-4.38-.9-2.36-.61-4.9-.9-7.35-.15-1.23-.08-2.49-.6-3.66-.57-1.3-1.44-2.25-2.96-2.31-1.47-.06-2.48,.66-3.17,1.93-2.06,3.79-2.62,7.99-3.29,12.15-.38,2.36-.31,4.8-.64,7.17-.32,2.31,.99,2.1,2.46,1.84,3.74-.65,7.42-.51,11.02,.84,2.79,1.05,4.56,2.98,4.96,5.94,.35,2.59-1.07,4.42-3.04,5.86-3.74,2.73-8.03,4.18-12.51,5.05-1.88,.37-2.34,1.25-2.23,3.01,.71,11.27,.46,22.54,.02,33.81-.15,3.98-1.94,7.13-5.46,8.81-3.12,1.49-6.48,1.45-9.43-.83-3.3-2.54-3.85-6.32-4.04-10.03-.39-7.53-1.3-15.04-1.21-22.59Z" style="fill:#1d1e1b;"/><path d="M180,44.67c2.09-2.95,4.13-5.19,6.3-7.37,6.72-6.76,21.77-5.79,27.56,2.27,2.31,3.22,2.99,6.85,1.97,10.6-.75,2.77-3.18,4.17-5.8,4.96-2.93,.88-5.89,.91-8.7-.53-7.35-3.77-12.09,.13-15.18,4.45-3.18,4.44-4.61,9.41-4.67,14.87-.08,7.45,.14,14.92-.97,22.33-.41,2.71-1.19,5.31-2.5,7.71-1.67,3.08-3.93,5.33-7.82,5-3.76-.32-5.62-2.95-6.91-5.99-2.42-5.73-2.97-11.88-3.2-17.99-.42-10.75-.46-21.52-.92-32.27-.24-5.6,0-11.23,2.79-16.42,1.96-3.64,4.85-5.56,8.98-5.5,3.73,.05,5.46,2.6,6.84,5.59,.84,1.82,1.38,3.72,1.75,5.67,.13,.72,.26,1.44,.47,2.61Z" style="fill:#1d1e1b;"/><path d="M141.02,87.01c.35,1.61-.83,2.62-1.6,3.72-7.06,10.01-19.7,13.73-31.79,8.92-14.46-5.76-22.62-16.98-25.96-31.81-2.25-10-.79-19.55,5.4-27.93,6.12-8.29,14.63-11.23,24.7-10.06,.27,.73-.25,.82-.58,.97-4.95,2.27-7.51,6.41-8.8,11.44-4,15.65,7.06,38.15,21.91,44.85,5.63,2.54,11.18,2.87,16.76-.03l-.04-.05Z" style="fill:#a3d1ab;"/><path d="M145.47,70.65c.06,4.34-.86,7.33-2.54,10.07-3.34,5.46-9.63,7.1-16.25,4.08-7.84-3.57-13.09-9.79-17.02-17.23-2.73-5.18-4.4-10.71-4.91-16.56-.28-3.18,.14-6.31,1.17-9.3,3.14-9.16,12.02-11.88,20.36-6.17,9.97,6.82,15.77,16.41,18.22,28.1,.56,2.66,.75,5.4,.97,7.03Z" style="fill:#3aaea9;"/><path d="M322.09,70.87c-.06-9.87,.04-18.74,1.84-27.48,.8-3.88,1.88-7.66,4.42-10.91,1.89-2.42,4.13-3.76,7.2-3.54,3.29,.24,4.79,2.55,5.91,5.28,2.67,6.49,3.22,13.35,3.26,20.22,.05,8.46,.03,16.94-.54,25.37-.48,7.04-.69,14.25-4.12,20.74-1.5,2.84-3.43,5.23-6.96,5.78-2.54,.39-4.3-.53-5.73-2.53-2.86-3.99-3.7-8.63-4.25-13.32-.81-6.84-1.27-13.71-1.01-19.61Z" style="fill:#1d1e1b;"/><path d="M126.18,104.55c-9.75,7.28-27.65,9.31-41.38,1.67-15.61-8.68-23.8-25.27-21.07-42.73,2.38-15.19,13.75-27.93,26.17-31.61-.09,.26-.09,.53-.23,.64-9.53,8-12.97,18.51-11.98,30.5,1.25,15.12,8.29,27.17,20.93,35.67,7.17,4.82,15.14,7.13,23.9,5.88,1.05-.15,2.13-.02,3.66-.02Z" style="fill:#e5edc1;"/><path d="M333.03,20.23c-3.11,.03-5.9-1.48-6.55-3.54-.94-2.99,.46-6.54,3.43-8.32,2.85-1.71,5.93-2.43,9.25-1.62,4.38,1.06,5.82,4.96,3.22,8.69-1.88,2.69-5.92,4.76-9.35,4.79Z" style="fill:#1d1e1b;"/><path d="M141.06,87.06c.03-.07,.06-.14,.11-.19,.02-.02,.1,0,.15,.02-.1,.04-.2,.09-.29,.13l.04,.05Z" style="fill:#9d8c70;"/></g></g></g></svg>