<?xml version="1.0" encoding="UTF-8"?><svg xmlns="http://www.w3.org/2000/svg" width="82.26" height="81.46" viewBox="0 0 82.26 81.46"><g id="a"/><g id="b"><g id="c"><g id="d"><g id="e"><g><path d="M77.8,57.4c.35,1.61-.83,2.62-1.6,3.72-7.06,10.01-19.7,13.73-31.79,8.92-14.46-5.76-22.62-16.98-25.96-31.81-2.25-10-.79-19.55,5.4-27.93C29.98,2.02,38.49-.92,48.56,.25c.27,.73-.25,.82-.58,.97-4.95,2.27-7.51,6.41-8.8,11.44-4,15.65,7.06,38.15,21.91,44.85,5.63,2.54,11.18,2.87,16.76-.03l-.04-.05v-.02Z" style="fill:#a3d1ab;"/><path d="M82.25,41.04c.06,4.34-.86,7.33-2.54,10.07-3.34,5.46-9.63,7.1-16.25,4.08-7.84-3.57-13.09-9.79-17.02-17.23-2.73-5.18-4.4-10.71-4.91-16.56-.28-3.18,.14-6.31,1.17-9.3C45.85,2.95,54.72,.23,63.06,5.94c9.97,6.82,15.77,16.41,18.22,28.1,.56,2.66,.75,5.4,.97,7.03v-.02Z" style="fill:#3aaea9;"/><path d="M62.96,74.94c-9.75,7.28-27.65,9.31-41.38,1.67C5.98,67.93-2.21,51.34,.52,33.88,2.9,18.69,14.27,5.96,26.69,2.28c-.09,.26-.09,.53-.23,.64-9.53,8-12.97,18.51-11.98,30.5,1.25,15.12,8.29,27.17,20.93,35.67,7.17,4.82,15.14,7.13,23.9,5.88,1.05-.15,2.13-.02,3.66-.02Z" style="fill:#e5edc1;"/></g></g></g></g></g></svg>